<svg xmlns="http://www.w3.org/2000/svg" xmlns:xlink="http://www.w3.org/1999/xlink" width="500" zoomAndPan="magnify" viewBox="0 0 375 374.999991" height="500" preserveAspectRatio="xMidYMid meet" version="1.0"><defs><clipPath id="id1"><path d="M 6 143 L 367 143 L 367 217 L 6 217 Z M 6 143 " clip-rule="nonzero"/></clipPath><clipPath id="id2"><path d="M 4.222656 207.054688 L 30.347656 104.585938 L 371.195312 191.492188 L 345.066406 293.960938 Z M 4.222656 207.054688 " clip-rule="nonzero"/></clipPath><clipPath id="id3"><path d="M 4.222656 207.054688 L 30.347656 104.585938 L 371.195312 191.492188 L 345.066406 293.960938 Z M 4.222656 207.054688 " clip-rule="nonzero"/></clipPath></defs><g clip-path="url(#id1)"><g clip-path="url(#id2)"><g clip-path="url(#id3)"><path fill="#97bb9e" d="M 6.417969 199.785156 C 37.195312 215.332031 74.289062 222.539062 107.160156 209.121094 C 122.824219 202.691406 135.367188 190.886719 144.503906 176.871094 C 148.378906 170.917969 156.261719 157.417969 147.28125 152.402344 C 137.039062 146.667969 129.410156 157.964844 134.941406 166.476562 C 140.472656 174.988281 152.628906 172.511719 158.933594 166.417969 C 164.808594 160.648438 169.089844 143.433594 179.199219 145.355469 C 187.476562 146.941406 194.550781 157.300781 199.910156 163.007812 C 207.285156 171.285156 215.53125 178.578125 224.652344 184.882812 C 233.820312 190.851562 246.777344 195.972656 257.554688 191.800781 C 267.507812 187.890625 272.21875 173.960938 284.550781 176.125 C 297.269531 178.351562 309.164062 189.265625 320.324219 195.253906 C 334.257812 202.730469 351.046875 206.882812 366.617188 208.875 C 366.769531 208.914062 366.835938 208.65625 366.675781 208.632812 C 343.273438 205.175781 323.238281 196.195312 303.230469 184.101562 C 291.910156 177.257812 281.265625 170.746094 269.828125 180.417969 C 262.140625 186.902344 257.089844 193.207031 245.90625 191.863281 C 232.195312 190.183594 220.28125 180.84375 210.589844 171.722656 C 202.957031 164.546875 196.398438 156.300781 188.648438 149.238281 C 185.324219 146.210938 181.101562 143.300781 176.488281 143.484375 C 168.96875 143.765625 164.855469 155.339844 161.503906 160.460938 C 157.761719 166.171875 152.816406 170.144531 145.773438 170.328125 C 139.179688 170.460938 131.808594 163.40625 134.820312 156.4375 C 136.921875 151.523438 146.28125 152.203125 148.898438 155.867188 C 150.597656 158.242188 149.4375 162.070312 148.738281 164.601562 C 144.015625 181.847656 127.433594 196.839844 112.410156 205.085938 C 94.695312 214.863281 73.640625 216.542969 53.945312 214.117188 C 45.703125 213.019531 37.609375 211.234375 29.671875 208.761719 C 21.730469 206.289062 14.058594 203.164062 6.648438 199.386719 C 6.375 199.320312 6.164062 199.648438 6.425781 199.765625 Z M 6.417969 199.785156 " fill-opacity="1" fill-rule="nonzero"/></g></g></g></svg>