<svg xmlns="http://www.w3.org/2000/svg" xmlns:xlink="http://www.w3.org/1999/xlink" width="500" zoomAndPan="magnify" viewBox="0 0 375 374.999991" height="500" preserveAspectRatio="xMidYMid meet" version="1.0"><path fill="#100708" d="M 187.5 0.722656 C 83.941406 0.722656 0 84.664062 0 188.222656 C 0 282.230469 69.246094 359.839844 159.476562 373.398438 L 159.476562 237.910156 L 113.078125 237.910156 L 113.078125 188.625 L 159.476562 188.625 L 159.476562 155.828125 C 159.476562 101.523438 185.929688 77.695312 231.058594 77.695312 C 252.664062 77.695312 264.101562 79.296875 269.507812 80.035156 L 269.507812 123.058594 L 238.730469 123.058594 C 219.578125 123.058594 212.882812 141.214844 212.882812 161.695312 L 212.882812 188.640625 L 269.035156 188.640625 L 261.417969 237.921875 L 212.882812 237.921875 L 212.882812 373.816406 C 304.398438 361.382812 375 283.140625 375 188.222656 C 375 84.664062 291.058594 0.722656 187.5 0.722656 Z M 187.5 0.722656 " fill-opacity="1" fill-rule="nonzero"/></svg>