<svg xmlns="http://www.w3.org/2000/svg" xmlns:xlink="http://www.w3.org/1999/xlink" width="500" zoomAndPan="magnify" viewBox="0 0 375 374.999991" height="500" preserveAspectRatio="xMidYMid meet" version="1.0"><path fill="#ffffff" d="M 187.5 148.398438 C 165.941406 148.398438 148.398438 165.941406 148.398438 187.5 C 148.398438 209.058594 165.941406 226.601562 187.5 226.601562 C 209.058594 226.601562 226.601562 209.058594 226.601562 187.5 C 226.601562 165.941406 209.058594 148.398438 187.5 148.398438 Z M 187.5 148.398438 " fill-opacity="1" fill-rule="nonzero"/><path fill="#ffffff" d="M 243.746094 126.199219 C 240.957031 126.199219 238.6875 128.464844 238.6875 131.253906 C 238.6875 134.042969 240.957031 136.308594 243.746094 136.308594 C 246.535156 136.308594 248.804688 134.042969 248.804688 131.253906 C 248.804688 128.464844 246.535156 126.199219 243.746094 126.199219 Z M 243.746094 126.199219 " fill-opacity="1" fill-rule="nonzero"/><path fill="#ffffff" d="M 187.5 0 C 84.125 0 0 84.125 0 187.5 C 0 290.875 84.125 375 187.5 375 C 290.875 375 375 290.875 375 187.5 C 375 84.125 290.875 0 187.5 0 Z M 294.640625 221.246094 C 294.640625 261.714844 261.714844 294.640625 221.246094 294.640625 L 153.75 294.640625 C 113.285156 294.640625 80.355469 261.714844 80.355469 221.246094 L 80.355469 153.753906 C 80.355469 113.285156 113.285156 80.359375 153.75 80.359375 L 221.246094 80.359375 C 261.714844 80.359375 294.640625 113.285156 294.640625 153.753906 Z M 294.640625 221.246094 " fill-opacity="1" fill-rule="nonzero"/><path fill="#ffffff" d="M 221.246094 95.707031 L 153.75 95.707031 C 121.746094 95.707031 95.703125 121.746094 95.703125 153.753906 L 95.703125 221.246094 C 95.703125 253.253906 121.746094 279.292969 153.75 279.292969 L 221.246094 279.292969 C 253.253906 279.292969 279.292969 253.253906 279.292969 221.246094 L 279.292969 153.753906 C 279.292969 121.746094 253.253906 95.707031 221.246094 95.707031 Z M 187.5 241.949219 C 157.480469 241.949219 133.050781 217.519531 133.050781 187.5 C 133.050781 157.480469 157.480469 133.050781 187.5 133.050781 C 217.519531 133.050781 241.949219 157.480469 241.949219 187.5 C 241.949219 217.519531 217.519531 241.949219 187.5 241.949219 Z M 243.746094 151.65625 C 232.496094 151.65625 223.34375 142.503906 223.34375 131.25 C 223.34375 120 232.496094 110.847656 243.746094 110.847656 C 255 110.847656 264.148438 120 264.148438 131.25 C 264.152344 142.503906 255 151.65625 243.746094 151.65625 Z M 243.746094 151.65625 " fill-opacity="1" fill-rule="nonzero"/></svg>