<svg xmlns="http://www.w3.org/2000/svg" xmlns:xlink="http://www.w3.org/1999/xlink" width="500" zoomAndPan="magnify" viewBox="0 0 375 374.999991" height="500" preserveAspectRatio="xMidYMid meet" version="1.0"><path fill="#100708" d="M 187.5 0 C 83.953125 0 0 83.953125 0 187.5 C 0 291.046875 83.953125 375 187.5 375 C 291.046875 375 375 291.046875 375 187.5 C 375 83.953125 291.046875 0 187.5 0 Z M 117.125 84.421875 C 130.28125 84.421875 139.046875 93.1875 139.046875 104.875 C 139.046875 116.5625 130.28125 125.328125 115.671875 125.328125 C 102.515625 125.34375 93.75 116.5625 93.75 104.875 C 93.75 93.1875 102.515625 84.421875 117.125 84.421875 Z M 140.625 265.625 L 93.75 265.625 L 93.75 140.625 L 140.625 140.625 Z M 296.875 265.625 L 252.75 265.625 L 252.75 197.3125 C 252.75 178.421875 240.984375 174.0625 236.578125 174.0625 C 232.171875 174.0625 217.453125 176.96875 217.453125 197.3125 C 217.453125 200.21875 217.453125 265.625 217.453125 265.625 L 171.875 265.625 L 171.875 140.625 L 217.46875 140.625 L 217.46875 158.0625 C 223.34375 147.890625 235.109375 140.625 257.171875 140.625 C 279.234375 140.625 296.875 158.0625 296.875 197.3125 Z M 296.875 265.625 " fill-opacity="1" fill-rule="nonzero"/></svg>