<svg xmlns="http://www.w3.org/2000/svg" xmlns:xlink="http://www.w3.org/1999/xlink" width="500" zoomAndPan="magnify" viewBox="0 0 375 374.999991" height="500" preserveAspectRatio="xMidYMid meet" version="1.0"><defs><clipPath id="id1"><path d="M 15.46875 0 L 374.71875 0 L 374.71875 375 L 15.46875 375 Z M 15.46875 0 " clip-rule="nonzero"/></clipPath></defs><g clip-path="url(#id1)"><path fill="#100708" d="M 373.679688 269.835938 C 358.035156 301.527344 333.722656 328.125 303.847656 346.703125 C 274.914062 364.625 240.800781 375 204.421875 375 C 152.210938 375 104.996094 353.871094 70.789062 319.636719 C 36.578125 285.398438 15.46875 238.148438 15.46875 185.898438 C 15.46875 140.90625 31.207031 99.503906 57.59375 66.964844 C 84.359375 33.859375 122.148438 9.996094 165.40625 0.945312 C 169.648438 0 173.792969 2.734375 174.640625 6.980469 C 175.019531 8.773438 174.738281 10.5625 173.984375 12.074219 C 168.140625 23.863281 163.617188 36.3125 160.601562 49.421875 C 157.585938 62.15625 156.078125 75.359375 156.078125 89.035156 C 156.078125 136.945312 175.394531 180.238281 206.777344 211.644531 C 238.160156 242.957031 281.417969 262.386719 329.292969 262.386719 C 335.511719 262.386719 341.449219 262.105469 347.292969 261.445312 C 353.324219 260.878906 359.261719 259.933594 365.105469 258.707031 C 369.347656 257.765625 373.492188 260.5 374.339844 264.746094 C 374.71875 266.535156 374.433594 268.328125 373.679688 269.835938 Z M 295.554688 333.40625 C 318.457031 319.164062 337.871094 299.734375 352.003906 276.722656 L 348.894531 277.101562 C 342.296875 277.761719 335.796875 278.136719 329.292969 278.136719 C 277.082031 278.136719 229.867188 256.917969 195.660156 222.773438 C 161.449219 188.539062 140.339844 141.285156 140.339844 89.035156 C 140.339844 74.226562 142.035156 59.796875 145.332031 45.933594 C 147.3125 37.066406 150.046875 28.578125 153.25 20.277344 C 120.078125 30.464844 91.144531 50.460938 69.75 76.867188 C 45.625 106.578125 31.207031 144.585938 31.207031 185.898438 C 31.207031 233.808594 50.527344 277.101562 81.910156 308.507812 C 113.289062 339.914062 156.546875 359.25 204.421875 359.25 C 237.878906 359.25 269.167969 349.816406 295.554688 333.40625 Z M 295.554688 333.40625 " fill-opacity="1" fill-rule="nonzero"/></g></svg>