<svg xmlns="http://www.w3.org/2000/svg" xmlns:xlink="http://www.w3.org/1999/xlink" width="500" zoomAndPan="magnify" viewBox="0 0 375 374.999991" height="500" preserveAspectRatio="xMidYMid meet" version="1.0"><path fill="#100708" d="M 187.5 0 C 84.5 0 0 84.5 0 187.5 C 0 290.5 84.5 375 187.5 375 C 290.5 375 375 290.5 375 187.5 C 375 84.5 291.5 0 187.5 0 Z M 273.75 271 C 270 276.5 263.5 278.5 257.75 274.75 C 213.75 247.5 158.5 242 92.75 257 C 86.25 259 80.5 254.25 78.75 248.5 C 76.75 242 81.5 236.25 87.25 234.5 C 158.5 218.5 220.5 225 269.25 255 C 275.75 257.75 276.5 265.25 273.75 271 Z M 296.25 219.25 C 291.5 225.75 283 228.75 276.5 224 C 226 193 149 183.75 90 202.5 C 82.5 204.5 74 200.5 72.25 193 C 70.25 185.5 74.25 177 81.75 175.25 C 150 154.75 234.5 165 292.5 200.5 C 298.25 203.5 301 212.75 296.25 219.25 Z M 298.25 167 C 238.25 131.5 138 127.5 80.75 145.5 C 71.25 148.25 62 142.75 59.25 134.25 C 56.5 124.75 62 115.5 70.5 112.75 C 137 93 246.75 96.75 316 138 C 324.5 142.75 327.25 154 322.5 162.25 C 317.75 168.75 306.5 171.5 298.25 167 Z M 298.25 167 " fill-opacity="1" fill-rule="nonzero"/></svg>