<svg xmlns="http://www.w3.org/2000/svg" xmlns:xlink="http://www.w3.org/1999/xlink" width="500" zoomAndPan="magnify" viewBox="0 0 375 374.999991" height="500" preserveAspectRatio="xMidYMid meet" version="1.0"><defs><clipPath id="id1"><path d="M 180 2.8125 L 195 2.8125 L 195 65 L 180 65 Z M 180 2.8125 " clip-rule="nonzero"/></clipPath><clipPath id="id2"><path d="M 116 309 L 151 309 L 151 372.5625 L 116 372.5625 Z M 116 309 " clip-rule="nonzero"/></clipPath><clipPath id="id3"><path d="M 224 309 L 259 309 L 259 372.5625 L 224 372.5625 Z M 224 309 " clip-rule="nonzero"/></clipPath></defs><path fill="#ffffff" d="M 187.492188 105.761719 C 139.898438 105.761719 101.175781 144.523438 101.175781 192.164062 C 101.175781 239.808594 139.898438 278.570312 187.492188 278.570312 C 235.085938 278.570312 273.808594 239.808594 273.808594 192.164062 C 273.808594 144.523438 235.085938 105.761719 187.492188 105.761719 Z M 187.492188 292.859375 C 132.023438 292.859375 86.902344 247.6875 86.902344 192.164062 C 86.902344 136.640625 132.023438 91.472656 187.492188 91.472656 C 242.960938 91.472656 288.082031 136.640625 288.082031 192.164062 C 288.082031 247.6875 242.960938 292.859375 187.492188 292.859375 " fill-opacity="1" fill-rule="nonzero"/><g clip-path="url(#id1)"><path fill="#ffffff" d="M 194.628906 64.480469 L 180.355469 64.480469 L 180.355469 2.859375 L 194.628906 2.859375 L 194.628906 64.480469 " fill-opacity="1" fill-rule="nonzero"/></g><path fill="#ffffff" d="M 100.03125 98.945312 L 60.460938 51.738281 L 71.398438 42.554688 L 110.964844 89.757812 L 100.03125 98.945312 " fill-opacity="1" fill-rule="nonzero"/><path fill="#ffffff" d="M 60.632812 177.027344 L 0.0117188 166.328125 L 2.488281 152.253906 L 63.109375 162.957031 L 60.632812 177.027344 " fill-opacity="1" fill-rule="nonzero"/><path fill="#ffffff" d="M 27.277344 293.003906 L 20.140625 280.628906 L 73.453125 249.820312 L 80.59375 262.195312 L 27.277344 293.003906 " fill-opacity="1" fill-rule="nonzero"/><g clip-path="url(#id2)"><path fill="#ffffff" d="M 129.515625 372.5 L 116.105469 367.613281 L 137.15625 309.707031 L 150.574219 314.59375 L 129.515625 372.5 " fill-opacity="1" fill-rule="nonzero"/></g><g clip-path="url(#id3)"><path fill="#ffffff" d="M 245.464844 372.5 L 224.410156 314.59375 L 237.824219 309.707031 L 258.878906 367.613281 L 245.464844 372.5 " fill-opacity="1" fill-rule="nonzero"/></g><path fill="#ffffff" d="M 347.699219 293.003906 L 294.386719 262.195312 L 301.523438 249.820312 L 354.839844 280.628906 L 347.699219 293.003906 " fill-opacity="1" fill-rule="nonzero"/><path fill="#ffffff" d="M 314.347656 177.027344 L 311.871094 162.957031 L 372.496094 152.253906 L 374.972656 166.328125 L 314.347656 177.027344 " fill-opacity="1" fill-rule="nonzero"/><path fill="#ffffff" d="M 274.949219 98.945312 L 264.011719 89.757812 L 303.585938 42.554688 L 314.519531 51.738281 L 274.949219 98.945312 " fill-opacity="1" fill-rule="nonzero"/></svg>