<svg xmlns="http://www.w3.org/2000/svg" xmlns:xlink="http://www.w3.org/1999/xlink" width="500" zoomAndPan="magnify" viewBox="0 0 375 374.999991" height="500" preserveAspectRatio="xMidYMid meet" version="1.0"><path fill="#100708" d="M 164.144531 222.628906 L 225.136719 187.5 L 164.144531 152.371094 Z M 164.144531 222.628906 " fill-opacity="1" fill-rule="nonzero"/><path fill="#100708" d="M 187.5 0 C 83.960938 0 0 83.964844 0 187.5 C 0 291.039062 83.960938 375 187.5 375 C 291.039062 375 375 291.039062 375 187.5 C 375 83.964844 291.039062 0 187.5 0 Z M 304.660156 187.691406 C 304.660156 187.691406 304.660156 225.71875 299.835938 244.054688 C 297.132812 254.089844 289.21875 262.003906 279.179688 264.707031 C 260.84375 269.53125 187.5 269.53125 187.5 269.53125 C 187.5 269.53125 114.347656 269.53125 95.820312 264.511719 C 85.78125 261.8125 77.867188 253.894531 75.164062 243.859375 C 70.339844 225.71875 70.339844 187.5 70.339844 187.5 C 70.339844 187.5 70.339844 149.476562 75.164062 131.140625 C 77.867188 121.105469 85.972656 112.996094 95.820312 110.296875 C 114.15625 105.46875 187.5 105.46875 187.5 105.46875 C 187.5 105.46875 260.84375 105.46875 279.179688 110.488281 C 289.21875 113.1875 297.132812 121.105469 299.835938 131.140625 C 304.851562 149.476562 304.660156 187.691406 304.660156 187.691406 Z M 304.660156 187.691406 " fill-opacity="1" fill-rule="nonzero"/></svg>